<?xml version="1.0" standalone="no"?>
<!DOCTYPE svg PUBLIC "-//W3C//DTD SVG 20010904//EN"
 "http://www.w3.org/TR/2001/REC-SVG-20010904/DTD/svg10.dtd">
<svg version="1.0" xmlns="http://www.w3.org/2000/svg"
 width="374.000000pt" height="135.000000pt" viewBox="0 0 374.000000 135.000000"
 preserveAspectRatio="xMidYMid meet">

<g transform="translate(0.000000,135.000000) scale(0.100000,-0.100000)"
fill="#000000" stroke="none">
<path d="M130 610 l0 -600 1805 0 1805 0 0 600 0 600 -1805 0 -1805 0 0 -600z
m392 133 l3 -66 50 66 50 67 73 0 c39 0 72 -3 72 -6 0 -3 -29 -38 -65 -76 -36
-39 -65 -73 -65 -77 0 -4 36 -60 79 -124 l79 -117 -77 0 -77 0 -44 75 c-42 70
-45 73 -62 58 -13 -12 -18 -31 -18 -75 l0 -58 -60 0 -60 0 0 200 0 200 60 0
59 0 3 -67z m400 -71 c2 -99 7 -144 17 -155 16 -20 64 -22 79 -4 7 8 13 71 14
153 l3 139 63 3 62 3 0 -143 c0 -129 -2 -148 -22 -188 -32 -64 -72 -82 -170
-78 -87 4 -121 21 -150 79 -15 28 -18 61 -18 182 l0 147 59 0 59 0 4 -138z
m528 -12 l0 -150 85 0 85 0 0 -50 0 -50 -145 0 -145 0 0 200 0 200 60 0 60 0
0 -150z m528 98 l-3 -53 -97 -3 c-90 -2 -98 -4 -98 -22 0 -18 7 -20 90 -20
l90 0 0 -50 0 -50 -90 0 c-89 0 -90 0 -90 -25 l0 -25 100 0 100 0 0 -50 0 -50
-165 0 -165 0 0 193 c0 107 3 197 7 200 3 4 78 7 165 7 l159 0 -3 -52z m152
-81 c0 -145 10 -177 55 -177 49 0 55 20 55 171 l0 139 66 0 66 0 -3 -152 c-5
-173 -15 -205 -79 -240 -49 -27 -176 -22 -217 8 -54 39 -63 74 -63 237 l0 147
60 0 60 0 0 -133z m404 15 c16 -62 30 -111 32 -109 2 2 17 53 32 113 l29 109
61 3 c34 2 62 -1 62 -5 0 -4 -26 -93 -58 -198 l-58 -190 -70 -3 -70 -3 -53
188 c-29 103 -56 194 -58 201 -4 10 9 12 58 10 l64 -3 29 -113z m554 66 l-3
-53 -97 -3 c-90 -2 -98 -4 -98 -22 0 -18 7 -20 90 -20 l90 0 0 -50 0 -50 -90
0 c-89 0 -90 0 -90 -25 l0 -25 100 0 100 0 0 -50 0 -50 -160 0 -160 0 0 200 0
200 161 0 160 0 -3 -52z m215 -55 l56 -108 1 108 0 107 55 0 55 0 0 -200 0
-200 -58 0 -59 0 -54 100 -54 100 -3 -100 -3 -100 -59 0 -60 0 0 200 0 200 63
0 64 0 56 -107z"/>
</g>
</svg>
