<?xml version="1.0" standalone="no"?>
<!DOCTYPE svg PUBLIC "-//W3C//DTD SVG 20010904//EN"
 "http://www.w3.org/TR/2001/REC-SVG-20010904/DTD/svg10.dtd">
<svg version="1.0" xmlns="http://www.w3.org/2000/svg"
 width="399.000000pt" height="126.000000pt" viewBox="0 0 399.000000 126.000000"
 preserveAspectRatio="xMidYMid meet">

<g transform="translate(0.000000,126.000000) scale(0.100000,-0.100000)"
fill="#000000" stroke="none">
<path d="M1045 1240 c-4 -7 -3 -16 3 -22 14 -14 45 -2 40 15 -6 16 -34 21 -43
7z"/>
<path d="M1192 1233 c2 -10 10 -18 18 -18 8 0 16 8 18 18 2 12 -3 17 -18 17
-15 0 -20 -5 -18 -17z"/>
<path d="M1335 1240 c-4 -7 -3 -16 3 -22 14 -14 45 -2 40 15 -6 16 -34 21 -43
7z"/>
<path d="M1482 1233 c2 -10 10 -18 18 -18 8 0 16 8 18 18 2 12 -3 17 -18 17
-15 0 -20 -5 -18 -17z"/>
<path d="M1625 1240 c-4 -7 -3 -16 3 -22 14 -14 45 -2 40 15 -6 16 -34 21 -43
7z"/>
<path d="M1772 1233 c2 -10 10 -18 18 -18 8 0 16 8 18 18 2 12 -3 17 -18 17
-15 0 -20 -5 -18 -17z"/>
<path d="M1915 1240 c-4 -7 -3 -16 3 -22 14 -14 45 -2 40 15 -6 16 -34 21 -43
7z"/>
<path d="M2062 1233 c2 -10 10 -18 18 -18 8 0 16 8 18 18 2 12 -3 17 -18 17
-15 0 -20 -5 -18 -17z"/>
<path d="M2205 1240 c-4 -7 -3 -16 3 -22 14 -14 45 -2 40 15 -6 16 -34 21 -43
7z"/>
<path d="M2350 1229 c0 -14 5 -19 17 -17 26 5 29 38 4 38 -15 0 -21 -6 -21
-21z"/>
<path d="M2495 1240 c-8 -13 3 -30 20 -30 14 0 27 24 18 34 -10 9 -31 7 -38
-4z"/>
<path d="M2640 1229 c0 -14 5 -19 17 -17 26 5 29 38 4 38 -15 0 -21 -6 -21
-21z"/>
<path d="M2780 1235 c0 -21 30 -31 40 -14 11 17 3 29 -21 29 -10 0 -19 -7 -19
-15z"/>
<path d="M2930 1229 c0 -14 5 -19 17 -17 26 5 29 38 4 38 -15 0 -21 -6 -21
-21z"/>
<path d="M3070 1235 c0 -21 30 -31 40 -14 11 17 3 29 -21 29 -10 0 -19 -7 -19
-15z"/>
<path d="M3220 1229 c0 -14 5 -19 17 -17 26 5 29 38 4 38 -15 0 -21 -6 -21
-21z"/>
<path d="M3360 1235 c0 -21 30 -31 40 -14 11 17 3 29 -21 29 -10 0 -19 -7 -19
-15z"/>
<path d="M3510 1229 c0 -14 5 -19 17 -17 26 5 29 38 4 38 -15 0 -21 -6 -21
-21z"/>
<path d="M3650 1235 c0 -21 30 -31 40 -14 11 17 3 29 -21 29 -10 0 -19 -7 -19
-15z"/>
<path d="M3800 1229 c0 -14 5 -19 17 -17 26 5 29 38 4 38 -15 0 -21 -6 -21
-21z"/>
<path d="M3942 1233 c5 -26 38 -29 38 -4 0 15 -6 21 -21 21 -14 0 -19 -5 -17
-17z"/>
<path d="M0 630 l0 -410 410 0 410 0 0 410 0 410 -410 0 -410 0 0 -410z m200
95 c0 -14 -4 -25 -10 -25 -6 0 -10 -30 -10 -69 0 -72 13 -97 44 -85 13 5 16
21 16 78 0 40 -5 77 -11 83 -23 23 -2 43 46 43 39 0 45 -3 45 -20 0 -11 -7
-23 -15 -26 -11 -5 -15 -23 -15 -79 0 -95 -20 -125 -86 -125 -68 0 -84 22 -84
116 0 60 -4 79 -17 89 -31 23 -9 45 47 45 47 0 50 -2 50 -25z m258 3 c2 -11
-3 -18 -12 -18 -13 0 -16 -14 -16 -80 0 -89 7 -96 52 -53 l28 27 0 -52 0 -52
-85 0 c-70 0 -87 3 -92 16 -4 10 1 22 10 29 24 17 25 165 2 165 -15 0 -20 21
-8 34 4 4 32 6 63 4 43 -2 56 -7 58 -20z m258 -2 c18 -26 18 -61 -2 -80 -8 -9
-11 -16 -4 -16 17 0 33 -46 26 -74 -9 -38 -54 -56 -136 -56 -68 0 -70 1 -70
25 0 16 6 25 15 25 12 0 15 16 15 80 0 64 -3 80 -15 80 -9 0 -15 9 -15 21 0
20 4 21 86 18 71 -3 88 -7 100 -23z"/>
<path d="M620 680 c0 -23 5 -30 19 -30 27 0 36 31 15 47 -27 20 -34 16 -34
-17z"/>
<path d="M620 581 c0 -27 4 -31 26 -31 22 0 25 4 22 28 -2 19 -9 28 -25 30
-20 3 -23 -1 -23 -27z"/>
<path d="M3170 928 c0 -109 1 -118 47 -247 l46 -133 44 123 c24 67 48 128 54
136 7 8 33 13 65 13 l54 0 0 -143 c0 -127 2 -146 18 -160 27 -24 58 -21 81 9
19 24 21 40 21 160 l0 134 35 0 35 0 0 -147 c0 -164 -6 -184 -59 -220 -67 -45
-167 -19 -197 52 -8 20 -14 70 -15 122 l0 88 -51 -137 -51 -138 -32 0 c-32 0
-34 3 -64 78 l-30 77 0 -188 -1 -187 403 2 402 3 0 405 0 405 -402 3 -403 2 0
-112z m711 -124 c17 -9 37 -31 45 -50 14 -32 13 -39 -3 -72 l-18 -36 28 -27
c32 -32 36 -76 10 -120 -26 -44 -69 -59 -167 -59 l-86 0 0 190 0 190 80 0 c54
0 91 -5 111 -16z"/>
<path d="M3760 715 c0 -35 0 -35 44 -35 37 0 46 4 52 22 8 28 -18 48 -63 48
-31 0 -33 -2 -33 -35z"/>
<path d="M3760 555 l0 -45 41 0 c52 0 79 15 79 43 0 35 -19 47 -72 47 l-48 0
0 -45z"/>
<path d="M1180 825 l0 -128 80 5 c58 3 85 10 100 23 27 24 26 70 -2 89 -20 15
-21 16 -5 34 21 23 22 65 1 82 -8 8 -51 15 -95 18 l-79 5 0 -128z m128 48 c3
-17 -3 -24 -22 -29 -37 -9 -56 2 -56 31 0 24 3 26 38 23 29 -2 38 -7 40 -25z
m2 -78 c21 -26 4 -45 -40 -45 -35 0 -40 3 -40 23 0 13 3 27 7 30 12 13 60 7
73 -8z"/>
<path d="M1420 825 l0 -125 29 0 c28 0 30 3 33 42 2 23 9 43 15 45 7 3 25 -16
40 -41 24 -40 32 -46 62 -46 l33 0 -17 28 c-10 15 -24 36 -31 46 -11 17 -10
23 11 48 28 33 30 46 14 82 -15 32 -56 46 -130 46 l-59 0 0 -125z m131 59 c19
-23 -1 -48 -40 -52 -30 -3 -31 -2 -31 32 0 33 2 36 29 36 16 0 34 -7 42 -16z"/>
<path d="M1662 849 c3 -96 4 -102 31 -125 39 -34 115 -34 154 0 27 23 28 29
31 125 l4 101 -31 0 -31 0 0 -81 c0 -96 -10 -119 -50 -119 -40 0 -50 23 -50
119 l0 81 -31 0 -31 0 4 -101z"/>
<path d="M1930 825 l0 -125 30 0 c29 0 30 1 30 50 l0 50 45 0 c38 0 45 3 45
20 0 17 -7 20 -45 20 -43 0 -45 1 -45 30 0 30 1 30 55 30 52 0 55 1 55 25 0
25 -1 25 -85 25 l-85 0 0 -125z"/>
<path d="M2151 834 c-22 -64 -41 -120 -41 -125 0 -5 11 -9 24 -9 17 0 29 9 38
28 11 22 21 28 56 30 40 3 44 1 55 -27 9 -24 17 -31 39 -31 15 0 28 3 28 8 0
4 -19 60 -41 125 l-42 117 -37 0 -37 0 -42 -116z m97 17 c16 -52 16 -51 -18
-51 -16 0 -30 3 -30 6 0 17 24 84 30 84 4 0 12 -17 18 -39z"/>
<path d="M2434 940 c-68 -27 -88 -142 -36 -201 21 -24 38 -32 74 -36 68 -8 98
2 98 32 0 23 -2 24 -50 18 -66 -8 -90 12 -90 72 0 59 25 79 86 72 40 -4 46 -2
53 17 6 15 4 23 -8 28 -23 9 -102 8 -127 -2z"/>
<path d="M2620 825 l0 -125 90 0 c89 0 90 0 90 25 0 24 -3 25 -60 25 -57 0
-60 1 -60 25 0 23 4 25 45 25 41 0 45 2 45 25 0 23 -4 25 -45 25 -41 0 -45 2
-45 25 0 24 3 25 60 25 57 0 60 1 60 25 0 25 -1 25 -90 25 l-90 0 0 -125z"/>
<path d="M3100 803 c0 -5 13 -42 30 -83 l29 -75 1 83 0 82 -30 0 c-16 0 -30
-3 -30 -7z"/>
<path d="M1100 523 c0 -59 2 -63 23 -63 46 0 67 12 67 36 0 13 -5 24 -11 24
-8 0 -8 5 1 15 20 24 4 42 -39 47 l-41 4 0 -63z m68 30 c-2 -10 -13 -19 -26
-21 -17 -3 -22 2 -22 17 0 16 6 21 26 21 19 0 25 -5 22 -17z m5 -47 c7 -19 -1
-26 -30 -26 -16 0 -23 6 -23 20 0 14 7 20 24 20 13 0 26 -6 29 -14z"/>
<path d="M1340 541 c0 -55 17 -81 54 -81 35 0 46 19 44 79 -1 37 -2 44 -5 21
-7 -73 -12 -81 -41 -78 -25 3 -27 7 -30 56 -4 66 -22 69 -22 3z"/>
<path d="M1493 583 c-7 -2 -13 -15 -13 -29 0 -17 7 -25 25 -30 36 -9 50 -30
29 -42 -9 -5 -26 -7 -37 -4 -14 3 -18 1 -13 -6 8 -14 45 -15 64 -3 20 12 11
55 -13 59 -26 5 -46 22 -39 33 3 5 20 9 37 9 24 0 28 3 17 10 -16 10 -37 12
-57 3z"/>
<path d="M1602 578 c-19 -19 -14 -46 11 -54 12 -3 28 -11 35 -17 20 -16 -5
-38 -36 -30 -17 4 -23 2 -18 -6 17 -27 76 -8 76 25 0 18 -9 27 -36 39 -41 17
-37 35 9 35 24 0 28 3 17 10 -20 13 -44 12 -58 -2z"/>
<path d="M1822 528 l-2 -68 35 0 c19 0 35 5 35 10 0 6 -13 10 -30 10 -28 0
-29 1 -33 58 l-3 57 -2 -67z"/>
<path d="M1920 575 c-17 -21 -5 -44 30 -56 50 -18 31 -55 -21 -42 -15 4 -20 3
-15 -5 10 -17 61 -15 76 3 17 21 5 44 -30 56 -40 14 -40 39 1 39 17 0 28 4 24
10 -9 15 -51 12 -65 -5z"/>
<path d="M2080 523 c0 -35 4 -63 10 -63 6 0 10 13 10 29 0 25 5 30 28 34 l27
4 -27 2 c-21 1 -28 6 -28 21 0 16 7 20 30 20 17 0 30 3 30 8 0 4 -18 7 -40 7
l-40 0 0 -62z"/>
<path d="M2223 582 c-9 -6 -53 -102 -53 -117 0 -3 5 -5 10 -5 6 0 10 7 10 15
0 22 66 20 74 -1 4 -9 9 -14 12 -11 4 4 -34 128 -40 127 0 0 -6 -4 -13 -8z
m27 -64 c0 -5 -11 -8 -24 -8 -24 0 -24 2 -14 31 l11 32 13 -24 c7 -13 13 -27
14 -31z"/>
<path d="M2320 570 c-25 -25 -26 -72 -2 -93 20 -18 67 -23 77 -8 3 5 -8 9 -23
9 -39 -1 -52 8 -52 37 0 43 10 55 47 55 20 0 32 4 28 10 -10 17 -54 11 -75
-10z"/>
<path d="M2430 538 c0 -59 12 -78 46 -78 37 0 54 26 54 81 0 66 -18 63 -22 -3
-3 -49 -5 -53 -30 -56 -27 -3 -28 -2 -28 47 0 27 -4 53 -10 56 -6 4 -10 -14
-10 -47z"/>
<path d="M2570 526 l0 -66 40 0 c22 0 40 5 40 10 0 6 -13 10 -30 10 -29 0 -30
1 -30 49 0 28 -4 53 -10 56 -6 4 -10 -18 -10 -59z"/>
<path d="M2640 578 c0 -5 9 -8 20 -8 18 0 20 -7 20 -55 0 -30 5 -55 10 -55 6
0 10 24 10 54 0 49 2 55 23 58 12 2 -2 6 -31 9 -28 2 -52 1 -52 -3z"/>
<path d="M2770 585 c0 -3 9 -23 20 -45 11 -22 20 -48 20 -60 0 -11 4 -20 9
-20 5 0 7 8 4 19 -2 10 5 38 17 61 12 23 19 44 16 47 -2 3 -12 -10 -21 -28
l-17 -32 -20 31 c-19 30 -28 39 -28 27z"/>
<path d="M1220 520 c0 -33 4 -60 10 -60 6 0 10 11 10 25 0 16 6 25 15 25 9 0
21 -11 27 -25 6 -14 15 -25 20 -25 12 0 10 14 -4 28 -9 9 -9 17 2 36 20 38 7
56 -40 56 l-40 0 0 -60z m68 28 c-2 -15 -11 -24 -25 -26 -19 -3 -23 1 -23 22
0 21 5 26 26 26 21 0 25 -4 22 -22z"/>
<path d="M1708 520 l-3 -60 43 0 c23 0 42 5 42 10 0 6 -16 10 -35 10 -28 0
-35 4 -35 19 0 14 8 21 28 24 l27 4 -27 2 c-21 1 -28 6 -28 20 0 15 8 21 38
24 l37 4 -42 1 -41 2 -4 -60z"/>
<path d="M1227 382 c-37 -40 -10 -112 41 -112 29 0 62 34 62 65 0 54 -69 85
-103 47z m64 -2 c19 -11 26 -54 11 -76 -15 -22 -42 -24 -62 -4 -25 25 -25 45
0 70 23 23 25 23 51 10z"/>
<path d="M1360 335 c0 -37 4 -65 10 -65 6 0 10 13 10 29 0 25 5 30 28 34 l27
4 -27 2 c-21 1 -28 6 -28 21 0 16 7 20 30 20 17 0 30 5 30 10 0 6 -18 10 -40
10 l-40 0 0 -65z"/>
<path d="M1520 335 l0 -65 40 0 c22 0 40 5 40 10 0 6 -13 10 -30 10 -41 0 -43
37 -2 43 l27 4 -27 2 c-21 1 -28 6 -28 21 0 16 7 20 30 20 17 0 30 5 30 10 0
6 -18 10 -40 10 l-40 0 0 -65z"/>
<path d="M1630 335 c0 -75 17 -89 22 -17 l3 47 30 -47 c42 -67 55 -63 55 17 0
75 -17 89 -22 18 l-3 -48 -33 48 c-18 26 -37 47 -42 47 -6 0 -10 -29 -10 -65z"/>
<path d="M1792 384 c-18 -12 -22 -24 -20 -52 4 -44 39 -69 81 -58 22 5 27 12
27 36 0 25 -4 30 -25 30 -14 0 -25 -4 -25 -10 0 -5 7 -10 15 -10 8 0 15 -7 15
-16 0 -11 -8 -14 -32 -12 -30 3 -33 7 -36 38 -4 41 19 63 56 53 17 -4 23 -2
18 6 -10 16 -48 14 -74 -5z"/>
<path d="M1910 335 c0 -37 4 -65 10 -65 6 0 10 28 10 65 0 37 -4 65 -10 65 -6
0 -10 -28 -10 -65z"/>
<path d="M1969 395 c-3 -29 0 -117 5 -122 3 -4 6 15 6 40 0 26 3 47 8 47 4 0
19 -21 34 -45 15 -25 32 -45 38 -45 6 0 10 27 10 65 0 75 -17 89 -22 18 l-3
-48 -30 47 c-26 42 -44 58 -46 43z"/>
<path d="M2110 335 l0 -65 40 0 c22 0 40 5 40 10 0 6 -16 10 -36 10 -28 0 -35
3 -32 18 2 10 15 19 33 21 l30 4 -30 6 c-17 4 -31 13 -33 24 -3 14 4 17 32 17
20 0 36 5 36 10 0 6 -18 10 -40 10 l-40 0 0 -65z"/>
<path d="M2220 335 l0 -65 40 0 c22 0 40 5 40 10 0 6 -13 10 -30 10 -41 0 -43
37 -2 43 l27 4 -27 2 c-21 1 -28 6 -28 21 0 16 7 20 30 20 17 0 30 5 30 10 0
6 -18 10 -40 10 l-40 0 0 -65z"/>
<path d="M2341 333 c1 -38 4 -56 6 -40 5 34 26 35 48 1 20 -30 32 -26 15 6 -9
16 -9 25 -1 33 28 28 0 67 -48 67 -19 0 -21 -5 -20 -67z m59 28 c0 -17 -18
-31 -41 -31 -5 0 -9 11 -9 25 0 20 5 25 25 25 18 0 25 -5 25 -19z"/>
<path d="M2457 393 c-11 -10 -8 -111 3 -118 6 -4 10 18 10 59 0 66 -1 72 -13
59z"/>
<path d="M2510 335 c0 -75 17 -89 22 -17 l3 47 30 -44 c45 -67 55 -64 55 13 0
76 -17 90 -22 19 l-3 -48 -33 48 c-18 26 -37 47 -42 47 -6 0 -10 -29 -10 -65z"/>
<path d="M2672 384 c-28 -19 -29 -67 -2 -94 36 -36 90 -23 90 21 0 24 -4 29
-25 29 -14 0 -25 -4 -25 -10 0 -5 7 -10 15 -10 8 0 15 -7 15 -16 0 -11 -8 -14
-32 -12 -29 3 -33 7 -36 37 -4 41 8 54 48 53 17 0 28 4 25 9 -9 14 -48 11 -73
-7z"/>
<path d="M7 36 c-8 -19 15 -37 32 -26 17 10 7 40 -13 40 -7 0 -16 -6 -19 -14z"/>
<path d="M153 34 c-8 -21 13 -42 28 -27 13 13 5 43 -11 43 -6 0 -13 -7 -17
-16z"/>
<path d="M293 34 c-7 -18 17 -38 31 -24 11 11 1 40 -14 40 -6 0 -13 -7 -17
-16z"/>
<path d="M434 39 c-3 -6 0 -17 8 -25 13 -13 16 -13 27 0 7 8 10 20 6 26 -8 13
-32 13 -41 -1z"/>
<path d="M583 34 c-8 -20 8 -36 26 -25 15 10 8 41 -9 41 -6 0 -13 -7 -17 -16z"/>
<path d="M723 34 c-8 -21 13 -42 28 -27 13 13 5 43 -11 43 -6 0 -13 -7 -17
-16z"/>
<path d="M863 34 c-7 -20 17 -37 34 -23 15 13 6 39 -13 39 -8 0 -17 -7 -21
-16z"/>
<path d="M1007 36 c-8 -19 15 -37 32 -26 17 10 7 40 -13 40 -7 0 -16 -6 -19
-14z"/>
<path d="M1153 34 c-8 -21 13 -42 28 -27 13 13 5 43 -11 43 -6 0 -13 -7 -17
-16z"/>
<path d="M1293 34 c-7 -18 17 -38 31 -24 11 11 1 40 -14 40 -6 0 -13 -7 -17
-16z"/>
<path d="M1435 40 c-4 -6 -1 -17 5 -26 15 -18 42 0 33 22 -6 16 -29 19 -38 4z"/>
<path d="M1577 36 c-8 -19 15 -37 32 -26 17 10 7 40 -13 40 -7 0 -16 -6 -19
-14z"/>
<path d="M1723 34 c-8 -21 13 -42 28 -27 13 13 5 43 -11 43 -6 0 -13 -7 -17
-16z"/>
<path d="M1863 34 c-7 -20 17 -37 34 -23 15 13 6 39 -13 39 -8 0 -17 -7 -21
-16z"/>
<path d="M2007 36 c-8 -19 15 -37 32 -26 17 10 7 40 -13 40 -7 0 -16 -6 -19
-14z"/>
<path d="M2153 34 c-8 -20 8 -36 26 -25 15 10 8 41 -9 41 -6 0 -13 -7 -17 -16z"/>
<path d="M2293 34 c-7 -18 17 -38 31 -24 11 11 1 40 -14 40 -6 0 -13 -7 -17
-16z"/>
<path d="M2433 34 c-7 -20 17 -37 34 -23 15 13 6 39 -13 39 -8 0 -17 -7 -21
-16z"/>
<path d="M2577 36 c-8 -19 15 -37 32 -26 17 10 7 40 -13 40 -7 0 -16 -6 -19
-14z"/>
</g>
</svg>
