<?xml version="1.0" standalone="no"?>
<!DOCTYPE svg PUBLIC "-//W3C//DTD SVG 20010904//EN"
 "http://www.w3.org/TR/2001/REC-SVG-20010904/DTD/svg10.dtd">
<svg version="1.0" xmlns="http://www.w3.org/2000/svg"
 width="225.000000pt" height="225.000000pt" viewBox="0 0 225.000000 225.000000"
 preserveAspectRatio="xMidYMid meet">

<g transform="translate(0.000000,225.000000) scale(0.100000,-0.100000)"
fill="#000000" stroke="none">
<path d="M970 2204 c-266 -49 -447 -142 -623 -320 -128 -129 -218 -284 -273
-469 -36 -122 -45 -365 -19 -495 46 -228 151 -417 321 -580 537 -513 1417
-345 1733 330 22 47 52 131 67 185 24 89 27 118 28 265 1 148 -2 176 -26 267
-103 395 -390 682 -794 794 -63 17 -111 23 -234 25 -85 1 -166 0 -180 -2z
m340 -50 c605 -114 983 -725 814 -1314 -80 -276 -281 -517 -539 -645 -111 -55
-192 -80 -317 -100 -123 -19 -179 -19 -298 0 -354 58 -638 268 -790 587 -116
243 -133 530 -46 784 115 340 418 608 773 683 112 24 292 26 403 5z"/>
<path d="M1110 1992 c0 -29 3 -52 8 -52 9 0 8 87 -1 96 -4 4 -7 -16 -7 -44z"/>
<path d="M988 2007 c12 -13 22 -33 22 -45 0 -12 5 -22 10 -22 6 0 10 10 10 23
-1 25 -32 67 -51 67 -7 0 -4 -9 9 -23z"/>
<path d="M1186 1999 c-9 -44 -8 -59 4 -59 6 0 10 8 8 17 -2 11 6 19 22 24 l25
7 -24 1 c-18 1 -22 5 -18 21 3 11 2 20 -3 20 -4 0 -10 -14 -14 -31z"/>
<path d="M1308 2013 c7 -3 16 -2 19 1 4 3 -2 6 -13 5 -11 0 -14 -3 -6 -6z"/>
<path d="M888 2004 c-3 -5 0 -29 7 -54 6 -25 13 -40 16 -35 7 13 -16 102 -23
89z"/>
<path d="M1270 1989 c-14 -25 11 -69 38 -68 12 0 10 3 -7 10 -20 8 -23 14 -18
44 7 40 3 44 -13 14z"/>
<path d="M836 1964 c17 -16 24 -32 21 -45 -3 -10 -1 -17 4 -13 17 10 9 53 -13
68 -34 24 -40 19 -12 -10z"/>
<path d="M1384 1973 c-3 -10 -10 -28 -15 -41 -11 -29 -11 -32 1 -32 6 0 10 9
10 20 0 11 5 20 11 20 5 0 7 5 4 10 -4 6 -1 17 5 25 9 11 9 15 1 15 -6 0 -14
-8 -17 -17z"/>
<path d="M1435 1957 c-4 -12 -7 -26 -6 -31 1 -4 -3 -14 -9 -21 -6 -7 -7 -16
-3 -18 5 -3 16 14 25 39 8 24 12 46 8 49 -4 3 -11 -5 -15 -18z"/>
<path d="M780 1944 c0 -20 25 -63 32 -54 2 3 -4 21 -14 40 -13 26 -18 30 -18
14z"/>
<path d="M741 1933 c7 -10 15 -20 16 -22 2 -2 3 3 3 11 0 9 -7 19 -16 22 -15
6 -15 4 -3 -11z"/>
<path d="M1492 1932 c-10 -18 -10 -22 0 -20 7 2 14 -8 16 -22 5 -35 16 -43 30
-20 9 15 9 18 -1 14 -9 -3 -17 9 -23 33 -9 37 -10 37 -22 15z"/>
<path d="M704 1934 c-8 -3 -5 -18 10 -44 27 -51 40 -52 16 -3 -10 21 -16 41
-13 45 5 9 4 9 -13 2z"/>
<path d="M1550 1909 c0 -5 5 -7 10 -4 6 3 10 8 10 11 0 2 -4 4 -10 4 -5 0 -10
-5 -10 -11z"/>
<path d="M1574 1860 c-29 -52 -17 -61 13 -9 25 45 27 49 16 49 -5 0 -18 -18
-29 -40z"/>
<path d="M1617 1842 c-19 -21 -22 -57 -7 -67 6 -3 7 1 4 10 -8 20 14 63 35 68
15 4 15 5 0 6 -9 0 -23 -7 -32 -17z"/>
<path d="M562 1838 c2 -6 15 -13 29 -15 13 -1 35 -5 47 -8 17 -4 23 -2 19 7
-2 7 -10 12 -17 10 -6 -1 -27 2 -46 7 -25 7 -34 7 -32 -1z"/>
<path d="M1677 1830 c3 -11 9 -17 15 -14 5 3 4 12 -3 20 -16 19 -18 18 -12 -6z"/>
<path d="M950 1810 c-209 -56 -377 -195 -466 -387 -47 -100 -64 -180 -64 -310
0 -80 -4 -113 -12 -116 -8 -4 -7 -6 4 -6 11 -1 22 -22 37 -71 70 -229 266
-416 501 -477 88 -23 255 -23 340 0 258 69 449 261 516 517 22 84 22 242 0
333 -25 107 -119 275 -180 326 -13 11 -14 17 -4 30 19 26 -118 -105 -382 -365
-135 -133 -264 -259 -287 -281 l-42 -40 20 -98 c11 -55 24 -105 28 -113 5 -9
88 99 262 342 140 195 257 355 262 356 15 0 86 -122 103 -178 24 -76 24 -219
0 -289 -34 -100 -111 -173 -183 -173 -33 0 -63 26 -63 54 0 13 5 16 18 11 39
-16 53 -17 77 -1 52 34 19 126 -46 126 -49 0 -85 -26 -123 -87 -19 -32 -52
-75 -73 -95 -77 -75 -206 -111 -315 -89 -49 10 -63 20 -111 69 -51 55 -85 108
-101 160 -7 22 -7 22 106 22 l113 1 171 167 c93 92 258 252 365 356 107 103
184 183 172 177 -19 -10 -29 -7 -70 23 -118 84 -220 117 -378 122 -98 3 -134
1 -195 -16z m355 -24 c33 -9 62 -20 65 -24 3 -4 13 -8 22 -10 35 -6 148 -77
148 -93 0 -6 -7 -8 -16 -5 -8 3 -13 2 -10 -3 7 -11 -62 -53 -75 -46 -5 4 -9
-1 -9 -9 0 -27 -50 -31 -94 -7 -108 57 -286 60 -411 8 -71 -30 -195 -123 -195
-146 0 -5 -4 -11 -9 -13 -14 -5 -58 -82 -76 -134 -18 -50 -21 -66 -31 -144 -6
-46 -24 -65 -88 -92 -10 -5 -31 -18 -48 -29 -16 -12 -31 -19 -33 -17 -8 7 -8
130 0 193 6 55 29 146 44 170 3 6 6 16 7 23 2 8 10 22 18 31 9 10 16 22 16 27
0 8 27 45 64 86 8 9 22 28 32 42 23 36 127 112 198 147 52 25 129 50 191 62
49 10 234 -2 290 -17z m-7 -206 c28 -12 52 -26 52 -31 0 -4 -19 -19 -42 -32
-81 -46 -433 -250 -541 -314 -60 -35 -113 -63 -119 -63 -22 0 -1 117 35 192
62 129 151 208 287 256 88 31 247 27 328 -8z m327 10 c10 -11 16 -20 13 -20
-3 0 9 -15 26 -33 58 -62 117 -202 131 -312 11 -80 7 -209 -7 -244 -5 -14 -12
-37 -14 -51 -3 -14 -12 -31 -21 -37 -9 -7 -12 -13 -5 -13 15 0 -16 -63 -76
-153 -29 -44 -50 -66 -59 -63 -8 4 -11 1 -8 -5 6 -9 -60 -75 -74 -73 -3 0 -13
-8 -21 -18 -20 -23 -140 -81 -215 -103 -74 -22 -246 -25 -325 -6 -100 24 -230
94 -307 165 -69 65 -151 172 -139 183 3 3 -1 11 -10 17 -14 11 -65 145 -58
156 1 3 40 5 86 5 l83 0 32 -63 c32 -64 71 -121 108 -157 162 -160 421 -189
617 -71 31 18 59 31 62 28 3 -3 6 2 6 10 0 15 26 33 43 29 5 -1 6 2 3 7 -3 4
6 21 19 38 14 16 28 34 33 39 10 12 46 88 47 97 0 3 3 10 8 14 4 4 7 20 7 36
0 15 4 28 10 28 5 0 8 44 6 108 -4 119 -25 186 -92 295 l-35 57 28 38 c16 20
37 49 46 65 21 32 28 33 52 7z"/>
<path d="M840 645 c16 -20 -18 -98 -39 -90 -28 11 2 -10 34 -24 22 -9 27 -9
18 0 -9 9 -7 23 8 61 10 27 19 50 19 52 0 2 -11 6 -25 8 -19 4 -23 2 -15 -7z"/>
<path d="M1362 630 c17 -27 -3 -50 -27 -30 -12 10 -13 16 -3 29 12 14 11 14
-4 2 -22 -16 -24 -51 -3 -51 11 0 13 -8 9 -30 -5 -25 -3 -30 12 -31 35 -2 49
2 69 22 20 20 20 20 -4 40 -13 11 -21 25 -17 34 3 8 -3 19 -14 25 -27 15 -32
12 -18 -10z m46 -77 c-2 -11 -14 -19 -31 -21 -22 -3 -27 1 -27 17 0 17 6 21
31 21 24 0 30 -4 27 -17z"/>
<path d="M972 601 c-25 -16 -10 -55 26 -66 34 -10 37 -22 9 -39 -12 -8 -21 -5
-36 8 -12 11 -21 14 -21 8 0 -12 31 -32 50 -32 20 0 60 49 60 73 0 43 -52 71
-88 48z m60 -18 c7 -27 -2 -43 -23 -43 -22 0 -34 22 -25 45 8 21 43 19 48 -2z"/>
<path d="M1150 585 c-9 -10 -9 -15 -1 -15 6 0 11 5 11 10 0 6 11 10 25 10 18
0 25 -5 25 -20 0 -11 -5 -20 -12 -20 -6 0 -4 -6 6 -13 24 -18 17 -51 -12 -55
-12 -2 -22 1 -22 7 0 6 -7 11 -16 11 -14 0 -14 -3 -4 -15 17 -21 53 -19 81 4
23 18 23 20 7 38 -11 12 -14 23 -8 33 21 34 -53 57 -80 25z"/>
<path d="M526 1786 c21 -15 30 -14 19 3 -3 6 -14 11 -23 11 -13 0 -13 -2 4
-14z"/>
<path d="M590 1796 c0 -2 8 -10 18 -17 15 -13 16 -12 3 4 -13 16 -21 21 -21
13z"/>
<path d="M480 1771 c0 -5 3 -11 8 -13 4 -1 17 -16 29 -31 12 -15 24 -23 27
-18 4 5 2 12 -4 16 -22 14 -9 26 23 21 28 -5 29 -5 8 4 -13 6 -32 8 -42 5 -12
-4 -21 -1 -25 9 -7 17 -24 22 -24 7z"/>
<path d="M1730 1770 c-10 -7 -11 -10 -2 -10 10 0 9 -7 -3 -30 -17 -32 -20 -49
-6 -34 14 14 41 84 33 84 -4 0 -14 -5 -22 -10z"/>
<path d="M1797 1717 c-3 -9 -20 -25 -37 -36 -18 -10 -28 -21 -23 -24 13 -8 76
48 71 63 -3 11 -6 10 -11 -3z"/>
<path d="M417 1704 c-3 -3 10 -20 29 -36 33 -30 35 -30 54 -13 11 10 20 25 19
34 0 14 -1 14 -6 1 -12 -31 -25 -41 -39 -29 -8 6 -11 16 -7 22 3 5 1 7 -5 3
-6 -3 -17 0 -25 8 -8 8 -17 13 -20 10z"/>
<path d="M371 1641 c-12 -16 -21 -33 -21 -37 0 -4 6 0 13 9 11 16 15 16 47 -8
37 -27 40 -29 40 -17 0 4 -16 17 -36 30 -29 19 -33 26 -24 38 7 8 10 14 7 14
-3 0 -15 -13 -26 -29z"/>
<path d="M1858 1582 c-32 -19 -43 -41 -29 -55 6 -6 9 -3 8 8 -1 11 11 24 30
34 18 9 33 19 33 24 0 10 -11 7 -42 -11z"/>
<path d="M320 1546 c0 -16 5 -18 39 -12 27 4 41 2 44 -7 3 -7 6 -5 6 5 1 24
-14 30 -44 16 -22 -10 -28 -9 -36 3 -7 11 -9 10 -9 -5z"/>
<path d="M290 1499 c0 -5 5 -7 10 -4 6 3 10 8 10 11 0 2 -4 4 -10 4 -5 0 -10
-5 -10 -11z"/>
<path d="M1932 1494 c-7 -8 -10 -14 -7 -14 3 0 -1 -13 -10 -30 -17 -33 -18
-40 -7 -40 8 0 47 89 41 94 -2 2 -10 -2 -17 -10z"/>
<path d="M371 1464 c0 -11 3 -14 6 -6 3 7 2 16 -1 19 -3 4 -6 -2 -5 -13z"/>
<path d="M310 1438 c25 -13 47 -22 49 -21 11 8 -37 38 -64 41 -27 3 -26 1 15
-20z"/>
<path d="M1943 1382 c-24 -9 -43 -20 -43 -24 0 -4 20 0 45 10 25 9 45 20 45
24 0 4 -1 7 -2 7 -2 -1 -22 -9 -45 -17z"/>
<path d="M286 1369 c-16 -5 -33 -6 -38 -3 -4 3 -8 1 -8 -5 0 -5 10 -11 22 -13
35 -5 34 -28 -1 -28 -17 0 -31 -3 -31 -8 0 -4 20 -6 45 -4 46 4 58 15 28 26
-19 8 -8 22 22 28 15 3 17 5 5 9 -8 3 -28 2 -44 -2z"/>
<path d="M1958 1317 c-34 -28 -35 -37 -5 -37 16 0 18 3 9 9 -10 6 -5 14 20 29
18 12 26 22 18 21 -8 0 -27 -10 -42 -22z"/>
<path d="M1998 1273 c7 -3 16 -2 19 1 4 3 -2 6 -13 5 -11 0 -14 -3 -6 -6z"/>
<path d="M220 1258 c0 -5 8 -8 18 -9 9 0 30 -2 45 -3 16 -1 30 1 33 5 2 4 -19
9 -46 11 -28 1 -50 0 -50 -4z"/>
<path d="M1985 1228 c-16 -4 -36 -6 -42 -3 -8 3 -13 -4 -13 -18 0 -13 3 -17 8
-11 4 6 24 14 45 18 35 7 37 6 38 -21 1 -23 2 -24 6 -6 7 37 -8 51 -42 41z"/>
<path d="M220 1202 c0 -4 16 -9 37 -10 20 -2 40 -5 45 -8 4 -3 8 -1 8 4 0 5
-14 12 -31 16 -42 8 -59 8 -59 -2z"/>
<path d="M258 1133 c-42 -4 -48 -7 -47 -26 1 -17 2 -18 6 -4 3 13 15 17 49 17
24 0 44 5 44 10 0 6 -1 9 -2 8 -2 -1 -24 -3 -50 -5z"/>
<path d="M1940 1128 c0 -8 30 -12 63 -9 9 1 17 -4 17 -13 0 -18 -25 -22 -35
-6 -7 12 -55 -17 -55 -33 0 -5 9 -2 20 8 15 14 23 15 34 6 20 -16 46 -3 46 24
0 20 -6 23 -45 27 -25 2 -45 0 -45 -4z"/>
<path d="M287 1053 c-12 -13 -20 -14 -28 -6 -15 15 -39 5 -39 -16 0 -13 2 -13
9 -2 5 8 17 11 28 7 13 -4 26 1 38 14 22 24 16 27 -8 3z"/>
<path d="M1930 1039 c0 -5 5 -7 10 -4 6 3 10 8 10 11 0 2 -4 4 -10 4 -5 0 -10
-5 -10 -11z"/>
<path d="M1975 1020 c-10 -12 -25 -18 -32 -16 -7 3 -13 1 -13 -4 0 -15 36 -12
50 5 7 8 19 15 27 15 8 0 11 5 8 10 -9 15 -20 12 -40 -10z"/>
<path d="M248 1012 c-49 -6 -30 -17 22 -14 27 2 48 8 45 12 -3 5 -13 8 -23 7
-9 -1 -29 -3 -44 -5z"/>
<path d="M2005 990 c-3 -5 -1 -10 4 -10 6 0 11 5 11 10 0 6 -2 10 -4 10 -3 0
-8 -4 -11 -10z"/>
<path d="M250 955 c-8 -9 -9 -15 -2 -15 6 0 14 5 18 11 3 6 17 9 30 6 13 -2
21 0 18 4 -9 14 -51 10 -64 -6z"/>
<path d="M1920 960 c0 -4 20 -11 45 -17 25 -6 45 -7 45 -3 0 4 -20 11 -45 17
-25 6 -45 7 -45 3z"/>
<path d="M300 903 c-14 -7 -31 -11 -38 -8 -7 3 -10 0 -7 -5 9 -14 38 -12 61 4
26 19 15 26 -16 9z"/>
<path d="M1990 895 c0 -14 -6 -16 -27 -12 -16 3 -36 9 -45 12 -10 4 -18 3 -18
-3 0 -5 12 -12 28 -15 15 -3 34 -8 44 -12 11 -4 18 0 23 15 4 12 4 24 1 27 -3
4 -6 -2 -6 -12z"/>
<path d="M320 860 c-8 -5 -11 -10 -7 -10 5 0 -1 -16 -13 -36 -22 -35 -24 -50
-5 -36 13 9 55 92 47 92 -4 0 -14 -5 -22 -10z"/>
<path d="M260 840 c0 -5 7 -7 15 -4 8 4 15 8 15 10 0 2 -7 4 -15 4 -8 0 -15
-4 -15 -10z"/>
<path d="M355 810 c-3 -5 -1 -10 4 -10 6 0 11 5 11 10 0 6 -2 10 -4 10 -3 0
-8 -4 -11 -10z"/>
<path d="M1870 802 c0 -12 50 -31 56 -21 3 5 13 8 21 7 9 -2 18 2 20 9 3 9 -4
10 -24 4 -15 -5 -38 -4 -51 0 -12 5 -22 5 -22 1z"/>
<path d="M1926 747 c3 -10 9 -15 12 -12 3 3 0 11 -7 18 -10 9 -11 8 -5 -6z"/>
<path d="M470 688 c0 -6 8 -20 17 -31 17 -18 17 -19 -2 -33 -10 -8 -29 -14
-42 -14 -20 0 -22 3 -13 19 16 32 12 36 -13 12 -23 -21 -57 -21 -57 0 0 15
-26 10 -43 -9 -21 -23 -21 -32 -3 -32 8 0 16 7 20 15 8 21 23 19 37 -6 7 -14
7 -25 1 -31 -13 -13 -4 -45 15 -52 12 -5 14 -1 9 19 -4 14 -2 25 3 25 5 0 11
-9 14 -21 5 -18 12 -20 57 -16 74 6 91 30 35 50 -6 2 -5 10 3 20 8 9 11 21 7
27 -16 26 17 6 41 -25 16 -21 35 -35 48 -35 17 0 6 14 -49 65 -71 65 -85 74
-85 53z m14 -117 c6 -9 -54 -24 -63 -16 -7 8 20 25 41 25 9 0 19 -4 22 -9z"/>
<path d="M1705 630 c0 -22 3 -40 7 -40 5 0 8 -6 8 -14 0 -7 -15 -17 -32 -21
l-33 -7 35 -13 c50 -19 53 -18 46 13 -5 20 -4 23 4 12 6 -10 10 -11 10 -2 0 6
5 12 10 12 15 0 12 -33 -6 -58 -12 -18 -19 -20 -35 -12 -12 7 -19 7 -19 1 0
-11 32 -31 49 -31 5 0 13 9 16 20 4 11 17 32 31 47 27 29 31 61 10 69 -8 3
-18 19 -21 35 -8 34 -12 35 -37 12 -17 -15 -18 -15 -18 0 0 10 -6 17 -13 17
-8 0 -12 -14 -12 -40z m65 -16 c0 -8 -7 -14 -15 -14 -15 0 -21 21 -9 33 10 9
24 -2 24 -19z"/>
<path d="M1800 498 c-12 -29 -24 -59 -27 -65 -3 -7 2 -13 10 -13 9 0 20 15 27
35 6 19 15 35 19 35 16 0 20 -14 10 -27 -9 -10 -8 -13 4 -13 8 0 20 6 26 14
10 11 7 17 -9 29 -16 11 -20 21 -15 36 4 15 2 21 -8 21 -8 0 -24 -24 -37 -52z"/>
<path d="M720 483 c0 -5 -25 -34 -55 -65 -53 -55 -57 -58 -105 -58 -41 0 -48
-3 -43 -16 5 -13 15 -15 52 -9 36 5 52 14 74 40 16 19 44 44 63 55 19 13 34
30 34 41 0 17 -20 29 -20 12z"/>
<path d="M1510 405 c11 -26 20 -52 20 -59 0 -7 -20 -26 -45 -44 -44 -31 -57
-52 -33 -52 7 0 27 14 45 32 40 39 53 31 25 -17 -12 -19 -17 -35 -12 -35 18 0
50 54 50 85 0 18 7 38 15 45 8 7 15 17 15 23 0 5 -8 2 -19 -7 -18 -16 -19 -15
-32 26 -9 26 -21 44 -31 46 -17 3 -16 0 2 -43z"/>
<path d="M744 405 c-16 -14 -35 -25 -41 -25 -7 0 -13 -5 -13 -10 0 -6 -11 -16
-25 -22 -30 -14 -32 -33 -5 -48 19 -10 24 -6 21 14 -3 16 22 36 45 36 14 0 24
6 24 14 0 7 10 20 23 29 16 11 19 18 11 26 -8 8 -18 5 -40 -14z"/>
<path d="M578 396 c-17 -24 -17 -24 10 -17 15 4 28 15 30 24 5 25 -20 20 -40
-7z"/>
<path d="M1260 370 c0 -20 -5 -30 -15 -30 -8 0 -15 5 -15 10 0 6 -4 10 -9 10
-5 0 -7 -9 -4 -20 3 -13 0 -20 -8 -20 -9 -1 -8 -5 5 -15 22 -17 23 -16 -24
-41 -27 -14 -31 -19 -17 -22 10 -2 24 2 32 8 12 10 16 9 21 -4 3 -9 4 -25 1
-36 -3 -11 -1 -20 4 -20 6 0 -2 -15 -16 -34 -16 -21 -22 -37 -16 -41 6 -3 16
5 23 20 7 17 17 24 28 20 14 -4 17 3 18 45 0 28 4 59 7 70 4 13 0 20 -12 23
-13 2 -8 7 17 15 31 9 33 11 13 17 -18 6 -21 12 -16 41 4 22 2 34 -6 34 -6 0
-11 -13 -11 -30z"/>
<path d="M920 340 c0 -6 11 -15 26 -20 l25 -10 -27 -35 c-32 -42 -53 -55 -90
-55 -26 0 -26 -1 -11 -18 17 -18 19 -18 82 2 39 12 65 25 65 34 0 9 -7 11 -21
7 -20 -7 -20 -6 -4 19 10 14 29 35 44 45 14 11 24 21 21 24 -12 11 -110 17
-110 7z"/>
<path d="M1610 291 c0 -5 7 -14 15 -21 18 -15 42 1 31 19 -8 13 -46 15 -46 2z"/>
<path d="M1282 189 c2 -7 10 -15 17 -17 8 -3 12 1 9 9 -2 7 -10 15 -17 17 -8
3 -12 -1 -9 -9z"/>
</g>
</svg>
